<svg version="1.2" xmlns="http://www.w3.org/2000/svg" viewBox="0 0 256 256" width="256" height="256">
	<defs>
		<linearGradient id="g1" x2="1" gradientUnits="userSpaceOnUse" gradientTransform="matrix(69.184,161.429,-100.652,43.136,12.694,47.286)">
			<stop offset="0" stop-color="#a855f7"/>
			<stop offset=".5" stop-color="#6366f1"/>
			<stop offset="1" stop-color="#3b82f6"/>
		</linearGradient>
		<linearGradient id="g2" x2="1" gradientUnits="userSpaceOnUse" gradientTransform="matrix(69.184,161.429,-100.652,43.136,174.122,47.286)">
			<stop offset="0" stop-color="#a855f7"/>
			<stop offset=".5" stop-color="#6366f1"/>
			<stop offset="1" stop-color="#3b82f6"/>
		</linearGradient>
		<linearGradient id="g3" x2="1" gradientUnits="userSpaceOnUse" gradientTransform="matrix(86.48,69.184,-147.199,183.999,85.526,93.408)">
			<stop offset="0" stop-color="#a855f7"/>
			<stop offset=".5" stop-color="#6366f1"/>
			<stop offset="1" stop-color="#3b82f6"/>
		</linearGradient>
	</defs>
	<style>
		.s0 { fill: none;stroke: url(#g1);stroke-linecap: round;stroke-linejoin: round;stroke-width: 23 } 
		.s1 { fill: none;stroke: url(#g2);stroke-linecap: round;stroke-linejoin: round;stroke-width: 23 } 
		.s2 { fill: none;stroke: url(#g3);stroke-linecap: round;stroke-linejoin: round;stroke-width: 23 } 
	</style>
	<g>
		<path class="s0" d="m81.88 47.29c-34.59 0-40.36 23.06-40.36 46.12 0 23.06-17.3 28.82-28.83 34.59 11.53 5.77 28.83 11.53 28.83 34.59 0 23.06 5.77 46.12 40.36 46.12"/>
		<path class="s1" d="m174.12 47.29c34.59 0 40.36 23.06 40.36 46.12 0 23.06 17.3 28.82 28.83 34.59-11.53 5.77-28.83 11.53-28.83 34.59 0 23.06-5.77 46.12-40.36 46.12"/>
		<path class="s2" d="m85.53 133.77l28.82 28.82 57.66-69.18"/>
	</g>
</svg>