<svg version="1.2" xmlns="http://www.w3.org/2000/svg" viewBox="0 0 256 256" width="256" height="256">
	<style>
		.s0 { fill: #ffffff } 
		.s1 { fill: none;stroke: #6168f2;stroke-linecap: round;stroke-linejoin: round;stroke-width: 23 } 
	</style>
	<g>
		<path id="Kształt 1" fill-rule="evenodd" class="s0" d="m55 0h146c30.38 0 55 24.62 55 55v146c0 30.38-24.62 55-55 55h-146c-30.38 0-55-24.62-55-55v-146c0-30.38 24.62-55 55-55z"/>
		<path class="s1" d="m81.88 47.29c-34.59 0-40.36 23.06-40.36 46.12 0 23.06-17.3 28.82-28.83 34.59 11.53 5.77 28.83 11.53 28.83 34.59 0 23.06 5.77 46.12 40.36 46.12"/>
		<path class="s1" d="m174.12 47.29c34.59 0 40.36 23.06 40.36 46.12 0 23.06 17.3 28.82 28.83 34.59-11.53 5.77-28.83 11.53-28.83 34.59 0 23.06-5.77 46.12-40.36 46.12"/>
		<path class="s1" d="m85.53 133.77l28.82 28.82 57.66-69.18"/>
	</g>
</svg>